<?xml version="1.0" standalone="no"?>
<!DOCTYPE svg PUBLIC "-//W3C//DTD SVG 20010904//EN"
 "http://www.w3.org/TR/2001/REC-SVG-20010904/DTD/svg10.dtd">
<svg version="1.0" xmlns="http://www.w3.org/2000/svg"
 width="210.000000pt" height="210.000000pt" viewBox="0 0 210.000000 210.000000"
 preserveAspectRatio="xMidYMid meet">
<metadata>
Created by potrace 1.14, written by Peter Selinger 2001-2017
</metadata>
<g transform="translate(0.000000,210.000000) scale(0.100000,-0.100000)"
fill="#000000" stroke="none">
<path d="M917 1964 c-4 -4 5 -20 18 -36 14 -16 25 -34 25 -39 0 -5 -20 -14
-45 -20 -25 -6 -45 -16 -45 -22 0 -6 3 -8 6 -4 12 12 65 -16 79 -42 11 -23 12
-32 1 -53 -9 -16 -10 -31 -4 -42 15 -27 46 -19 64 17 29 55 35 57 199 51 157
-5 274 -19 289 -34 6 -6 0 -17 -15 -29 -23 -20 -21 -22 19 -24 24 -2 32 -16
25 -52 -17 -88 -97 -190 -183 -232 -25 -12 -83 -29 -130 -37 -47 -9 -128 -30
-180 -47 -107 -35 -199 -41 -289 -17 -66 18 -144 14 -239 -13 -50 -14 -88 -19
-118 -14 -56 7 -59 -10 -4 -33 36 -15 40 -20 37 -47 -2 -16 2 -47 10 -69 18
-54 16 -124 -6 -173 -28 -60 -130 -158 -229 -219 -2 -1 -6 -21 -8 -45 -3 -24
-12 -59 -21 -78 -8 -20 -16 -40 -17 -46 -2 -5 -9 -30 -16 -55 -7 -25 -15 -49
-16 -55 -2 -5 -6 -26 -9 -45 -4 -19 -11 -39 -16 -44 -5 -6 -9 -21 -9 -33 0
-27 36 -103 49 -103 4 0 14 18 21 41 11 31 11 48 3 70 -18 46 3 123 65 244 65
125 150 219 242 265 72 35 186 78 229 84 18 2 43 14 56 26 36 34 97 47 270 55
97 5 99 5 163 25 40 13 44 12 58 -9 26 -37 56 -60 91 -72 18 -6 31 -15 27 -20
-11 -19 -80 -40 -111 -35 -24 3 -43 -3 -77 -26 -25 -16 -46 -34 -46 -39 0 -8
55 -14 90 -9 8 1 24 10 35 20 21 19 122 46 132 36 14 -14 -23 -54 -102 -111
-46 -33 -94 -60 -107 -60 -16 0 -32 -14 -55 -49 -18 -27 -30 -53 -27 -58 6
-10 86 30 97 48 24 41 140 127 235 174 68 33 97 62 88 86 -5 12 5 29 30 55
l37 38 -61 58 -61 58 30 27 c41 39 94 125 134 219 30 69 68 179 69 201 1 12
11 16 61 21 28 3 63 10 78 16 16 6 57 11 91 11 34 0 66 3 69 6 3 4 0 16 -8 27
-13 18 -12 22 5 34 11 8 20 18 20 23 0 12 -37 24 -80 25 -60 3 -107 15 -131
34 -16 12 -49 20 -99 24 -96 7 -160 30 -207 73 -37 34 -58 33 -58 -3 0 -8 -9
-22 -21 -29 -19 -13 -23 -12 -45 20 -24 35 -72 70 -82 59 -4 -3 0 -15 8 -26
11 -15 12 -24 3 -34 -31 -38 -214 16 -315 93 -31 24 -54 30 -66 18z"/>
</g>
</svg>
